<mxfile host="Electron" agent="Mozilla/5.0 (Windows NT 10.0; Win64; x64) AppleWebKit/537.36 (KHTML, like Gecko) draw.io/26.0.16 Chrome/132.0.6834.196 Electron/34.2.0 Safari/537.36" version="26.0.16">
  <diagram name="Strona-1" id="2pUx_MCk5fDyALwEKk2r">
    <mxGraphModel dx="1434" dy="836" grid="1" gridSize="10" guides="1" tooltips="1" connect="1" arrows="1" fold="1" page="1" pageScale="1" pageWidth="827" pageHeight="1169" math="0" shadow="0">
      <root>
        <mxCell id="0" />
        <mxCell id="1" parent="0" />
        <mxCell id="3BylUWUplO-gPu4zZEXG-1" value="" style="rounded=0;whiteSpace=wrap;html=1;fillColor=none;dashed=1;strokeColor=#B3B3B3;strokeWidth=3;" parent="1" vertex="1">
          <mxGeometry x="80" y="230" width="150" height="470" as="geometry" />
        </mxCell>
        <mxCell id="3BylUWUplO-gPu4zZEXG-2" value="&lt;font style=&quot;font-size: 20px;&quot;&gt;Sources&lt;/font&gt;" style="rounded=0;whiteSpace=wrap;html=1;dashed=1;strokeWidth=3;strokeColor=#B3B3B3;" parent="1" vertex="1">
          <mxGeometry x="105" y="210" width="100" height="40" as="geometry" />
        </mxCell>
        <mxCell id="3BylUWUplO-gPu4zZEXG-3" value="" style="rounded=0;whiteSpace=wrap;html=1;fillColor=none;dashed=1;strokeColor=#B3B3B3;strokeWidth=3;" parent="1" vertex="1">
          <mxGeometry x="280" y="230" width="516" height="470" as="geometry" />
        </mxCell>
        <mxCell id="3BylUWUplO-gPu4zZEXG-4" value="&lt;font style=&quot;font-size: 20px;&quot;&gt;Data Warehouse&lt;/font&gt;" style="rounded=0;whiteSpace=wrap;html=1;dashed=1;strokeWidth=3;strokeColor=#B3B3B3;" parent="1" vertex="1">
          <mxGeometry x="451" y="210" width="162" height="40" as="geometry" />
        </mxCell>
        <mxCell id="3BylUWUplO-gPu4zZEXG-5" value="" style="rounded=0;whiteSpace=wrap;html=1;fillColor=none;dashed=1;strokeColor=#B3B3B3;strokeWidth=3;" parent="1" vertex="1">
          <mxGeometry x="850" y="230" width="150" height="470" as="geometry" />
        </mxCell>
        <mxCell id="3BylUWUplO-gPu4zZEXG-6" value="&lt;font style=&quot;font-size: 20px;&quot;&gt;Consumers&lt;/font&gt;" style="rounded=0;whiteSpace=wrap;html=1;strokeWidth=3;dashed=1;strokeColor=#B3B3B3;" parent="1" vertex="1">
          <mxGeometry x="870" y="210" width="110" height="40" as="geometry" />
        </mxCell>
        <mxCell id="3BylUWUplO-gPu4zZEXG-7" value="&lt;font style=&quot;font-size: 18px;&quot;&gt;Bronze Layer&lt;/font&gt;" style="rounded=0;whiteSpace=wrap;html=1;fillColor=#994C00;" parent="1" vertex="1">
          <mxGeometry x="298" y="270" width="116" height="30" as="geometry" />
        </mxCell>
        <mxCell id="3BylUWUplO-gPu4zZEXG-8" value="" style="rounded=0;whiteSpace=wrap;html=1;fillColor=none;strokeColor=#994C00;strokeWidth=4;" parent="1" vertex="1">
          <mxGeometry x="298" y="310" width="116" height="380" as="geometry" />
        </mxCell>
        <mxCell id="3BylUWUplO-gPu4zZEXG-9" value="&lt;font style=&quot;font-size: 18px;&quot;&gt;Silver Layer&lt;/font&gt;" style="rounded=0;whiteSpace=wrap;html=1;fillColor=#E6E6E6;" parent="1" vertex="1">
          <mxGeometry x="474" y="270" width="116" height="30" as="geometry" />
        </mxCell>
        <mxCell id="3BylUWUplO-gPu4zZEXG-10" value="" style="rounded=0;whiteSpace=wrap;html=1;fillColor=none;strokeColor=#E6E6E6;strokeWidth=4;" parent="1" vertex="1">
          <mxGeometry x="474" y="310" width="116" height="380" as="geometry" />
        </mxCell>
        <mxCell id="3BylUWUplO-gPu4zZEXG-11" value="&lt;font style=&quot;font-size: 18px;&quot;&gt;Gold Layer&lt;/font&gt;" style="rounded=0;whiteSpace=wrap;html=1;fillColor=#FFFF00;" parent="1" vertex="1">
          <mxGeometry x="650" y="270" width="116" height="30" as="geometry" />
        </mxCell>
        <mxCell id="3BylUWUplO-gPu4zZEXG-12" value="" style="rounded=0;whiteSpace=wrap;html=1;fillColor=none;strokeColor=#FFFF00;strokeWidth=4;" parent="1" vertex="1">
          <mxGeometry x="650" y="310" width="116" height="380" as="geometry" />
        </mxCell>
        <mxCell id="3BylUWUplO-gPu4zZEXG-14" value="&lt;b&gt;CRM&lt;/b&gt;" style="image;aspect=fixed;html=1;points=[];align=center;fontSize=12;image=img/lib/azure2/general/Folder_Blank.svg;" parent="1" vertex="1">
          <mxGeometry x="120.5" y="280" width="69" height="56.00000000000001" as="geometry" />
        </mxCell>
        <mxCell id="3BylUWUplO-gPu4zZEXG-15" value="" style="image;aspect=fixed;html=1;points=[];align=center;fontSize=12;image=img/lib/azure2/general/File.svg;" parent="1" vertex="1">
          <mxGeometry x="165.15" y="310" width="24.35" height="30" as="geometry" />
        </mxCell>
        <mxCell id="3BylUWUplO-gPu4zZEXG-18" value="&lt;b&gt;ERP&lt;/b&gt;" style="image;aspect=fixed;html=1;points=[];align=center;fontSize=12;image=img/lib/azure2/general/Folder_Blank.svg;" parent="1" vertex="1">
          <mxGeometry x="120.5" y="370" width="69" height="56.00000000000001" as="geometry" />
        </mxCell>
        <mxCell id="3BylUWUplO-gPu4zZEXG-19" value="" style="image;aspect=fixed;html=1;points=[];align=center;fontSize=12;image=img/lib/azure2/general/File.svg;" parent="1" vertex="1">
          <mxGeometry x="165.15" y="400" width="24.35" height="30" as="geometry" />
        </mxCell>
        <mxCell id="3BylUWUplO-gPu4zZEXG-21" value="&lt;b&gt;Object Type&lt;/b&gt;: CSV FIles&lt;div&gt;&lt;b&gt;Interface&lt;/b&gt;: FIles in Folders&lt;/div&gt;" style="text;html=1;align=center;verticalAlign=middle;whiteSpace=wrap;rounded=0;" parent="1" vertex="1">
          <mxGeometry x="80" y="500" width="150" height="30" as="geometry" />
        </mxCell>
        <mxCell id="3BylUWUplO-gPu4zZEXG-22" value="" style="endArrow=none;html=1;rounded=0;strokeWidth=3;dashed=1;strokeColor=#B3B3B3;" parent="1" edge="1">
          <mxGeometry width="50" height="50" relative="1" as="geometry">
            <mxPoint x="90" y="480" as="sourcePoint" />
            <mxPoint x="220" y="480" as="targetPoint" />
          </mxGeometry>
        </mxCell>
        <mxCell id="3BylUWUplO-gPu4zZEXG-23" value="" style="html=1;verticalLabelPosition=bottom;align=center;labelBackgroundColor=#ffffff;verticalAlign=top;strokeWidth=2;strokeColor=#663300;shadow=0;dashed=0;shape=mxgraph.ios7.icons.data;fillColor=#994C00;" parent="1" vertex="1">
          <mxGeometry x="326" y="330" width="60" height="70" as="geometry" />
        </mxCell>
        <mxCell id="3BylUWUplO-gPu4zZEXG-24" value="" style="html=1;verticalLabelPosition=bottom;align=center;labelBackgroundColor=#ffffff;verticalAlign=top;strokeWidth=2;strokeColor=#B3B3B3;shadow=0;dashed=0;shape=mxgraph.ios7.icons.data;fillColor=#E6E6E6;" parent="1" vertex="1">
          <mxGeometry x="502" y="330" width="60" height="70" as="geometry" />
        </mxCell>
        <mxCell id="3BylUWUplO-gPu4zZEXG-25" value="" style="html=1;verticalLabelPosition=bottom;align=center;labelBackgroundColor=#ffffff;verticalAlign=top;strokeWidth=2;strokeColor=#CCCC00;shadow=0;dashed=0;shape=mxgraph.ios7.icons.data;fillColor=#FFFF00;" parent="1" vertex="1">
          <mxGeometry x="678" y="330" width="60" height="70" as="geometry" />
        </mxCell>
        <mxCell id="3BylUWUplO-gPu4zZEXG-28" value="" style="shape=flexArrow;endArrow=classic;html=1;rounded=0;fillColor=#99FFFF;strokeColor=#33FFFF;" parent="1" edge="1">
          <mxGeometry width="50" height="50" relative="1" as="geometry">
            <mxPoint x="420" y="399" as="sourcePoint" />
            <mxPoint x="470" y="400" as="targetPoint" />
            <Array as="points">
              <mxPoint x="450" y="399" />
            </Array>
          </mxGeometry>
        </mxCell>
        <mxCell id="3BylUWUplO-gPu4zZEXG-31" value="" style="shape=flexArrow;endArrow=classic;html=1;rounded=0;fillColor=#99FFFF;strokeColor=#33FFFF;" parent="1" edge="1">
          <mxGeometry width="50" height="50" relative="1" as="geometry">
            <mxPoint x="230" y="399" as="sourcePoint" />
            <mxPoint x="280" y="400" as="targetPoint" />
            <Array as="points">
              <mxPoint x="260" y="399" />
            </Array>
          </mxGeometry>
        </mxCell>
        <mxCell id="3BylUWUplO-gPu4zZEXG-32" value="" style="shape=flexArrow;endArrow=classic;html=1;rounded=0;fillColor=#99FFFF;strokeColor=#33FFFF;" parent="1" edge="1">
          <mxGeometry width="50" height="50" relative="1" as="geometry">
            <mxPoint x="590" y="399" as="sourcePoint" />
            <mxPoint x="640" y="400" as="targetPoint" />
            <Array as="points">
              <mxPoint x="620" y="399" />
            </Array>
          </mxGeometry>
        </mxCell>
        <mxCell id="3BylUWUplO-gPu4zZEXG-33" value="" style="shape=flexArrow;endArrow=classic;html=1;rounded=0;fillColor=#99FFFF;strokeColor=#33FFFF;" parent="1" edge="1">
          <mxGeometry width="50" height="50" relative="1" as="geometry">
            <mxPoint x="796" y="397.5" as="sourcePoint" />
            <mxPoint x="846" y="398.5" as="targetPoint" />
            <Array as="points">
              <mxPoint x="826" y="397.5" />
            </Array>
          </mxGeometry>
        </mxCell>
        <mxCell id="3BylUWUplO-gPu4zZEXG-34" value="&lt;b&gt;Raw Data&lt;/b&gt;" style="text;html=1;align=center;verticalAlign=middle;whiteSpace=wrap;rounded=0;" parent="1" vertex="1">
          <mxGeometry x="310" y="410" width="90" height="30" as="geometry" />
        </mxCell>
        <mxCell id="3BylUWUplO-gPu4zZEXG-35" value="&lt;b&gt;Cleansed, Standarized Data&lt;/b&gt;" style="text;html=1;align=center;verticalAlign=middle;whiteSpace=wrap;rounded=0;" parent="1" vertex="1">
          <mxGeometry x="477" y="410" width="110" height="30" as="geometry" />
        </mxCell>
        <mxCell id="3BylUWUplO-gPu4zZEXG-36" value="&lt;b&gt;Buisness-Ready Data&lt;/b&gt;" style="text;html=1;align=center;verticalAlign=middle;whiteSpace=wrap;rounded=0;" parent="1" vertex="1">
          <mxGeometry x="663" y="410" width="90" height="30" as="geometry" />
        </mxCell>
        <mxCell id="3BylUWUplO-gPu4zZEXG-37" value="&lt;font style=&quot;font-size: 8px;&quot;&gt;&lt;b style=&quot;&quot;&gt;Object Type: &lt;/b&gt;Tables&lt;/font&gt;&lt;div&gt;&lt;span style=&quot;font-size: 8px; background-color: transparent; color: light-dark(rgb(0, 0, 0), rgb(255, 255, 255));&quot;&gt;&lt;b&gt;Load:&lt;/b&gt;&lt;/span&gt;&lt;/div&gt;&lt;div&gt;&lt;ul&gt;&lt;li style=&quot;&quot;&gt;&lt;font style=&quot;font-size: 8px;&quot;&gt;Batch Processing&lt;/font&gt;&lt;/li&gt;&lt;li style=&quot;&quot;&gt;&lt;font style=&quot;font-size: 8px;&quot;&gt;Full Load&lt;/font&gt;&lt;/li&gt;&lt;li style=&quot;&quot;&gt;&lt;font style=&quot;font-size: 8px;&quot;&gt;Truncate &amp;amp; Insert&lt;/font&gt;&lt;/li&gt;&lt;/ul&gt;&lt;div&gt;&lt;font style=&quot;font-size: 8px;&quot;&gt;No &lt;b&gt;Transformations&lt;/b&gt;&lt;/font&gt;&lt;/div&gt;&lt;/div&gt;&lt;div&gt;&lt;font style=&quot;font-size: 8px;&quot;&gt;&lt;b&gt;Data Model&lt;/b&gt;: None (as-is)&lt;/font&gt;&lt;/div&gt;" style="text;html=1;align=left;verticalAlign=middle;whiteSpace=wrap;rounded=0;" parent="1" vertex="1">
          <mxGeometry x="298" y="440" width="114" height="140" as="geometry" />
        </mxCell>
        <mxCell id="3BylUWUplO-gPu4zZEXG-38" value="&lt;font style=&quot;font-size: 8px;&quot;&gt;&lt;b style=&quot;&quot;&gt;Object Type: &lt;/b&gt;Tables&lt;/font&gt;&lt;div&gt;&lt;span style=&quot;font-size: 8px; background-color: transparent; color: light-dark(rgb(0, 0, 0), rgb(255, 255, 255));&quot;&gt;&lt;b&gt;Load:&lt;/b&gt;&lt;/span&gt;&lt;/div&gt;&lt;div&gt;&lt;ul&gt;&lt;li style=&quot;&quot;&gt;&lt;font style=&quot;font-size: 8px;&quot;&gt;Batch Processing&lt;/font&gt;&lt;/li&gt;&lt;li style=&quot;&quot;&gt;&lt;font style=&quot;font-size: 8px;&quot;&gt;Full Load&lt;/font&gt;&lt;/li&gt;&lt;li style=&quot;&quot;&gt;&lt;font style=&quot;font-size: 8px;&quot;&gt;Truncate &amp;amp; Insert&lt;/font&gt;&lt;/li&gt;&lt;/ul&gt;&lt;div&gt;&lt;font style=&quot;font-size: 8px;&quot;&gt;&lt;b&gt;Transformations:&lt;/b&gt;&lt;/font&gt;&lt;/div&gt;&lt;/div&gt;&lt;div&gt;&lt;ul&gt;&lt;li&gt;&lt;font style=&quot;font-size: 8px;&quot;&gt;Data Cleansing&lt;/font&gt;&lt;/li&gt;&lt;li&gt;&lt;font style=&quot;font-size: 8px;&quot;&gt;Data Standarization&lt;/font&gt;&lt;/li&gt;&lt;li&gt;&lt;font style=&quot;font-size: 8px;&quot;&gt;Data Normalization&lt;/font&gt;&lt;/li&gt;&lt;li&gt;&lt;font style=&quot;font-size: 8px;&quot;&gt;Derived Columns&lt;/font&gt;&lt;/li&gt;&lt;li&gt;&lt;font style=&quot;font-size: 8px;&quot;&gt;Data Enrichment&lt;/font&gt;&lt;/li&gt;&lt;/ul&gt;&lt;/div&gt;&lt;div&gt;&lt;font style=&quot;font-size: 8px;&quot;&gt;&lt;b&gt;Data Model&lt;/b&gt;: None (as-is)&lt;/font&gt;&lt;/div&gt;" style="text;html=1;align=left;verticalAlign=middle;whiteSpace=wrap;rounded=0;" parent="1" vertex="1">
          <mxGeometry x="477" y="470" width="113" height="180" as="geometry" />
        </mxCell>
        <mxCell id="3BylUWUplO-gPu4zZEXG-39" value="&lt;font style=&quot;font-size: 8px;&quot;&gt;&lt;b style=&quot;&quot;&gt;Object Type: &lt;/b&gt;Views&lt;/font&gt;&lt;div&gt;&lt;span style=&quot;font-size: 8px; background-color: transparent; color: light-dark(rgb(0, 0, 0), rgb(255, 255, 255));&quot;&gt;No &lt;b&gt;Load&lt;/b&gt;&lt;/span&gt;&lt;/div&gt;&lt;div&gt;&lt;div&gt;&lt;font style=&quot;font-size: 8px;&quot;&gt;&lt;b&gt;Transformations:&lt;/b&gt;&lt;/font&gt;&lt;/div&gt;&lt;/div&gt;&lt;div&gt;&lt;ul&gt;&lt;li&gt;&lt;font style=&quot;font-size: 8px;&quot;&gt;Data Integreations&lt;/font&gt;&lt;/li&gt;&lt;li&gt;&lt;font style=&quot;font-size: 8px;&quot;&gt;Aggregations&lt;/font&gt;&lt;/li&gt;&lt;li&gt;&lt;font style=&quot;font-size: 8px;&quot;&gt;Buisness Logics&lt;/font&gt;&lt;/li&gt;&lt;/ul&gt;&lt;/div&gt;&lt;div&gt;&lt;font style=&quot;font-size: 8px;&quot;&gt;&lt;b&gt;Data Model&lt;/b&gt;:&amp;nbsp;&lt;/font&gt;&lt;/div&gt;&lt;div&gt;&lt;ul&gt;&lt;li&gt;&lt;font style=&quot;font-size: 8px;&quot;&gt;Star Schema&lt;/font&gt;&lt;/li&gt;&lt;li&gt;&lt;font style=&quot;font-size: 8px;&quot;&gt;Flat Table&lt;/font&gt;&lt;/li&gt;&lt;li&gt;&lt;font style=&quot;font-size: 8px;&quot;&gt;Aggregated Table&lt;/font&gt;&lt;/li&gt;&lt;/ul&gt;&lt;/div&gt;" style="text;html=1;align=left;verticalAlign=middle;whiteSpace=wrap;rounded=0;" parent="1" vertex="1">
          <mxGeometry x="650" y="440" width="114" height="210" as="geometry" />
        </mxCell>
        <mxCell id="3BylUWUplO-gPu4zZEXG-40" value="" style="image;aspect=fixed;html=1;points=[];align=center;fontSize=12;image=img/lib/azure2/analytics/Power_BI_Embedded.svg;" parent="1" vertex="1">
          <mxGeometry x="900" y="310" width="51" height="68" as="geometry" />
        </mxCell>
        <mxCell id="3BylUWUplO-gPu4zZEXG-41" value="&lt;b&gt;BI &amp;amp; Reporting&lt;/b&gt;" style="text;html=1;align=center;verticalAlign=middle;whiteSpace=wrap;rounded=0;" parent="1" vertex="1">
          <mxGeometry x="850.5" y="396" width="150" height="30" as="geometry" />
        </mxCell>
        <mxCell id="3BylUWUplO-gPu4zZEXG-42" value="" style="points=[];aspect=fixed;html=1;align=center;shadow=0;dashed=0;fillColor=#FF6A00;strokeColor=none;shape=mxgraph.alibaba_cloud.machine_learning;" parent="1" vertex="1">
          <mxGeometry x="900" y="540" width="49.8" height="50.099999999999994" as="geometry" />
        </mxCell>
        <mxCell id="3BylUWUplO-gPu4zZEXG-43" value="&lt;b&gt;Machine Learning&lt;/b&gt;" style="text;html=1;align=center;verticalAlign=middle;whiteSpace=wrap;rounded=0;" parent="1" vertex="1">
          <mxGeometry x="849.9" y="590.1" width="150" height="30" as="geometry" />
        </mxCell>
        <mxCell id="3BylUWUplO-gPu4zZEXG-44" value="" style="sketch=0;html=1;aspect=fixed;strokeColor=none;shadow=0;fillColor=#3B8DF1;verticalAlign=top;labelPosition=center;verticalLabelPosition=bottom;shape=mxgraph.gcp2.big_query" parent="1" vertex="1">
          <mxGeometry x="901.5" y="426" width="49.5" height="50" as="geometry" />
        </mxCell>
        <mxCell id="3BylUWUplO-gPu4zZEXG-45" value="&lt;b&gt;SQL Queries&lt;/b&gt;" style="text;html=1;align=center;verticalAlign=middle;whiteSpace=wrap;rounded=0;" parent="1" vertex="1">
          <mxGeometry x="849.9" y="485" width="150" height="30" as="geometry" />
        </mxCell>
        <mxCell id="3BylUWUplO-gPu4zZEXG-46" value="" style="shape=image;verticalLabelPosition=bottom;labelBackgroundColor=default;verticalAlign=top;aspect=fixed;imageAspect=0;image=data:image/png,iVBORw0KGgoAAAANSUhEUgAAAVYAAAD3CAYAAABGmHx8AAAAAXNSR0IArs4c6QAAAARnQU1BAACxjwv8YQUAAAAJcEhZcwAADsMAAA7DAcdvqGQAAGH3SURBVHhe7d11fBTX3sfxz8z6ZpONK25FCzWgeJFSF2pPe+u37u4u99bd21t3hbYUp9BCi7tLgADxkGSzLjPPH7tZsrObkNDQkva8X5ebcmZ2AwG+OXPkdySPx6MiCIIgtBpZ2yAIgiD8MSJYBUEQWpkIVkEQhFYmglUQBKGViWAVBEFoZSJYBUEQWpkIVkEQhFYmglUQBKGViWAVBEFoZSJYBUEQWpkIVkEQhFYmglUQBKGViWAVBEFoZSJYBUEQWpkIVkEQhFYmglUQBKGViWAVBEFoZSJYhb8VVVXx+/34/X7tJUH400jiaBbh70BRFDweD16vF5DQ6/XY7Sna2wThTyGCVWjTQqEQdXV1uN1ukCR0sg6dTodOJ5OcnIJer9O+RBAOOBGsQpvk8/morXXgcrmQJCkaprJOFwlXGYvFisVi1r5UEA44EaxCm+LxeKioqMTtdiPLkSDVyehkHWaLmSSrFQCv1yeGA4S/jAhWoU1wOl2UlZfhdLqQZXlvmJpN2O12rFYrRqMRIsMD1TU16GSZ5ORk9Hq99u0E4YASwSoc1JxOJ7t278bhqEMny5FHfh32VDvpaWkkJSUhSZL2ZdTU1KAoKmazCWukFysIfxYRrMJByelysX37DmpraqKP/AaDnqzMLLKzszGZwr3Txni9XlwuN3q9jpSUlIThKwgHighW4aDi8/nYsrWQsrKyyCO/DoPBQG5uDgX5+RgMBu1LElJVlerqaiRJxmq17jOIBaE1iWAVDgqhUIithYXs2F6EqqrhMVS9nqysTLp26YLZ3PLZfZfLhc/nx2g0YLPZtJcF4YARwSr85XbvLmbt2rX4/IFwoOp02JJs9Ox1CBnp6drbm01VVWprawFITk5GpxNrWoU/hwhW4S/jdrtZtnwFZWVl4UkpWYccCVaDwUBqqp201DTsqXaSbbborH9LhHdj+TCZTFitFu1lQTggRLAKfzpVVdm4cSOr16xFUSKP/ZFgNZlN5ObmUlNTQzAQjAatTtZhsZixJduwWiyYLRbMZjMmoxGdTocsJy57oaoqjro6UMO9VlkWk1jCgSeCVfhTuVwu5s2bT3lFZXQtal5eLsHI1lSdrKPHId3p3q07TqeT6uo9VNfUhndYQThEdbqYpVc6nQ69QY/JZMJoMKLX722XZRlVVQkGQ1gsZkwmk/aXJAitTgSr8KfZsmUrvy9YQDAYQqcLL+4fPHgQHdq3x+128/OcuSghBZ1ex4D+/cnPz4u+VlEUXC4XdU4nLpcrXBtAbRC0kZAO/3zvfzfc5qo36EkWk1jCn0AEq3DAhUIhfv11Hhs3bY481suYzCaOHTeOzMyM6H2lZWUsXrQEWZbRG/QcNmAA2dlZMe/VUP34qc/nwx/wEwgEkJBihg9i6weEw1z0WoUDTQSrcEC5XC5+mjKV8vKKBo/uMiNHjKBr1y7a29m8ZQsbN2xC1skYjUb69z+UrMxM7W2NCoVCBAIBQiEFRVFQVQUiY62qCnq9nqQkq9gwIBxQiUf8BaEVuB0Ovvrsc0pKSgE1Em4qOTk5CUMVoHu3bnTs2AFUCAaDrFq1mrKyMu1tjQr3Ss0kJVlJTraRkpKCyWQiFFJQVRVFCQevIBxIIliFA8aaksJpQ4+mV1UpyRXloITDLdWeSnV1tfb2qH79+tKhQ3tUVSUUCrF27Xp27CjS3rZPwWCQPXv2UFNTi6KE0Ol1SJJEIBBAVcWDmnDgiKEA4YALut1sf+MViqdPxZmTiycnH192LpZOXejZpzc9enRHl2Dx/vYdO9iyeStIoJN15ObmNHpvQ6FQiNraWtxuD5IkYTAYSE62YbFY8Pv9+Hw+jEajGGsVDhgRrMKfpnrRAjY/+SjB2loiaYk/LQNDtx60HzqcUG4+/qQkgsEgwWAoejqA3++PTkTZbDZ69OhOcnKy9u3x+/1U19TgcoaLX+v1epJTkklJTo6uc1VVFY/Xi6qoWCzmRte/CsIfIYJV+FMF9lSx6dEHcKxZhQTIJhOK34dEeDJJMZsJZmUTysknmJuPkpOHlJaOrNdHd2YZ9Hry8vJo164AnU5Hba2DmtqaSPFrHSajEbvdjt2ekrB3q6oqbrcbvT689lUQWpsIVuFPp4ZCFL35CiUTvya5dz+63XU/aiCAe8c2nGtW4Vi6GM/OHZGoBdVkQsnKQcnJg9w8yM6DnDxMKSno9HoURcGg12NPtZNqt2Oz2fY56x8MhfD7/JhM4Z1bgtCaRLAKf5nyn35gx6vPo09J4ZBHnsTa/ZDoNffWLex45VncG9aFhw2A2KyUkOx2yM6FnDx0eQXYunYjvWcvkjMymxWWwWCQUCiE0WjcZxALQkuIYBX+Uo5lS9jy6P2AStd7HsZ+1KDoNXfhVjbecDmqomDOy8fcoSP+PXsI1VQTrKlGDQYhJnCl8NBtRia2zt0wtWuPoaA9utx89Hn56FPs4aLZkXFVSZIIBoPoIkVfBKG1iGAV/nKerZvZeM9tKG4Xne+8n7RhI6PXtj35KDVzZ2HKb0fvdz7e+yJVJVi9B19pCf7yUgJlJXgKt+LdUUigZDeqokY6upHeLiBZk9DnFWDIy8fYsTOmgvaY2nfAlJOHwWgUE1lCqxHBKhwUPDu2s/nuWwg6auly1wOkRsLVvWkDG2++Ggk45PnXsfToqX1pHMXlxL1xPc7VK3AuX4Jv2xbtLRHh0JVNpkjIdsTcsTPG9h0xdeiEMSdXO/4gCM0iglU4aHiLtrP5rpsJOevo8sDjpBwZHhbYdPPVeDZvIOvUM8m//Frty/bJMX8uu59/AjUQqM/SOImadRYLhoL2mDt2xtShU+RHZ/QZzd9iK/wziWAVDiqerZvZctfNqKpC9ydewNKtB1VTf2TXK89hzMyk1/tfal/SKMXlpOzDd6iZPhlVVbENOALZlkzdvDnkXXMzOnsqqt9HyFlHqK4OxVGLv6qCUFUV/rISQo7w6QPhfyB7/5no7amYu3TH1Lkrli7dMXXpjjEvP3pdEESwCgcd54qlFD54F7rkFLo/+yqyycT6i84CRaH7i29h7tJN+5I4dfPnUvLWy4Rqa9DZU8m99GpSRo5hz6SvKX//TQrufZTkIwdrXxZDcbvwF+/CV7Q9/KNwC97CzYRcrug99aGrT7Fj7t4TS49e4Y+H9EYnjt3+xxLBKhyUKn+cSPEbL2Hu2JFuz7zKtofuwr1+LTnnXUT2/12ovT1KcTkpffsVaufORJJkUkaMJueya9HZwju1HHNmUPLSU2RdcjXpJ0/QvnzfVBXvjkI8a1fhXrMS97rVhByOvZcj/y/JOkydu2Ht0w9L737Y+vZHThK1YP8pRLAKB61dLz5F9cyp2IeNwpiXT+XXn2Ht2ZsuT72svRUA95qVlLz4FIHKcnTJyeRddxu2gUNi7nEtX8Lux+4h9fhTyb6s5eO1Wu7VKyh7/Xn8pcUQzt0otX74QAVJp8PU/RBshx1F8uFHYe7aA8QqhL8tEazCQSvk9VB4yzX4dhWRfOQgnEsXIul0HPLxd+isSTH37pn4JRUfv4saCmHp0YuCO+5HnxFfJNu3bQtFt11D0uFHkX/v49rLzebdtI7Kj9/FvXYVALLNRur4U3Au/g3V60WyJuEv2o4SWWurohL5HwC6FDvJA4eQPGgoSQMORza0/KBE4eAlglU4qHkLN1N427WoioKkhqfv29/7KMlHHQ2AGgxQ+trz1M6ZgQSkjBxL7jU3IzUSVME9lWy/4jwMee3o+PK72sv75C/eRdXH/8O16DdUVOQkG+mnnY39uFORTSa2nH8aKWOPJ/vSq1G8XnyFm3GvW417zUo8G9cR8npiAlZVQWe1YjtiIPaRY7EdfhRSM3aNCQc3EazCQa/s/beomhheDSABGaedRfbFV6J4PBQ/+RCuVcsASDvxdLIvvbrJtadqMEDhuScj6WQ6f/JDs0NMcbuo/vpTaqdMRA0GkUwmUk86A/vJZ6CLjJ3W94Yz/3UJaRPO1b4FasCPe+1qnMsW4Vq+GN/OonDAqnuHDXSpaaSOGIP9mHFYmjFJJxycRLAKBz3F52PrtRcTrKwAScLaoyftHnySXY/ehXfjeiQk7GPGk3PtrdqXJrTtogmobhftX34PQ+6+l0m5F/xK5XuvE6zeA4Bt+GjSz7skbqihZvJ3VL73Bnm33EPSkL27xxoTKC/FuXQRdQvm4VqzEiUYCg8aRP5FWg/pTfrJp2MfMgJJr9e+XDiIiWAV2oTaOTMoefEpAGS9HkuPXrjXr0aSJKy9+9Huoaegmb3PnTf+m2DJbnLveQzLgCO1l6NC1VVUvf0yrqULQAVDuw5kXnY95t79tLcCUPLUQ7gX/067Z97A1LGz9nKTQo5aan/7hbr5v+BcswJVUaJDBob0dNLGn0zmSaehS07RvlQ4CIlgFdoGVWX7TVfg27kdCBdQAdBZk+j4/JvoM7M1L2hcyQO34t24loxLriHluFO0lwFw/TqbqvdeQ3G5kPQ67Kf9H/bT/6/RnqMaDFJ02TkogQCdPvi20fuaI1hTTe2vP1M9cwrebYWR4QIV2WIl/YRTyJ5wDroUu/ZlwkFEd9999z2kbRSEg44kIVusOBfOj4aqBBAM4l6zCtVZh5xib1bgeJYtIrh7F4b8dnE9VsXlpOrN56n95lMIBDB17ET2HY+QNGwUUhPLo7zr11A38ydMPXuTMvo47eUWkc0WrIf0Iv34U0geGJ6k85cUo7hduNavoeqnSQTrHFi790QWhboPSiJYhTbD2L4jtbOmgNcTrlYVqV6l1FbjWbMCx9TvcS+cR6imGp0tGV1qmvYtAPCtW41/22b0djtJQ0dF2wOFmyl//B58G9ciyzLJx55E5k33os+MX7alVTflO3xbNpA8YgyWvgO0l/ebIT2D5CMGYu3WA/eGtShOJ2owiGv9OqqmT0YymbF269Fk6At/PjEUILQpVZ++x55vP4sWA6xfABDO2PoDXsINxpx8rAOHYB04FFP3ntHVArVffUTtt59hzG9H7rNvAeCc9RM1H7yJGgggWy2kX3EzlkHD6t+taarK7usuIlBZQe4jz2A+pI/2jhZT/H5cyxfj+H0edUsWEIzs7lIbTG6FP6qY2nek4PJrST78qJj3EP46IliFNsW/q4iimy4HQJ+aBqqCUhcOnUgHNi50AfTpGSQdNRTLwKPxF22n5sO3kI0G8t7+CsdHb+Gc9RMAhvz2pN98L4aCDntfvA++daspfeQOZFsy7d76DElu3iSalhrw41q2GMf8uTiXLCDodofbo9u5JMzdDiH5iIFUTvmeYHV1OGgj19KOGUu7K65Hl+CgReHPJYJVaHN23nQ5/t1FWA87iry7H8W/bQvuFUvwrFiCf8tG1FBob082krYNe7KSrAMlBEgYOnUhuKMQAFOf/qTfdC+yZlfXvux57Rmcv87GNmoc6VferL3cNFXFs34Njl9m4Zg/F8XlRK3fQKCqSGYzSYceju2oo0k+chD6tHQqv/2CkvfexD78GBRFoXbeXFQ1HLD61DQ6XHcL9qOb2dsWDggRrEKbU/nhW9T+8A2mLt1p9+QrMdcUtwvv6uV4Vy7Fs3IJyp6q8IVoT3bvioJ6EmDo3I3M+55AMltiru2L6qyj+PoLUbw+su/9D6Zmjq+GqvfgmDMdx6yp+EuKYzYK6FLTsB01FNvAo7H2649s3DtB5S3aTuEtVyMl2ejx2nvokmy4N65n9zuv4Vq3BjXSw00/Zhztr71ZVNj6i4hgFdoc1+LfKXv6YfRp6XR481Pt5RiBndvxrVqKZ+VSAuvXoCohaDBsEP4Q/g/ZYsF0+CAsw8aEA7KJHVz1HN99huOrj9ClZ5L70ntNDgOoqopn9XLqpv2Aa8lCFCW0N0zTMkg+egS2wcOw9OyTsECLGgxSeMd1eLZspuM9D5M8uEGvVFWpmv4Txe+9RdBRiwqY8grocs9DWLp2b/g2wp9ABKvQ5iiOWrZfdg6yXk+nT3/UXk7IOfkbHJ+9G37GlmIGB2J6s/X0uQVYx5+CZeSxSI0cNKj6vJTd9G9CjhqSJ5xHyhn/0t4CgOJx45wzg7oZP+LftXPvY36yneSjh5M0dBTmnn32ObNf/tG7VHz9CcmDh9Hh7oe1lwEI1tZQ9Orz1MybC4BkMNHh+lvIGDtee6twAIlgFdqkosvOIVRXS6ePf2g0+CAcYLUfv41r6iSQwNi+M6qiECwuQpak6MSQdnigni4tg6Qzzsc8bHRc8Dm//xLHlx+ArCPnhXfRpcce2RKqrsIxZRJ1M39CcbkAFclgxHzYQGwjx2IdcGSzNxK4161h+323IJstdHvlXfTpGdpbYuyZNY2dr79EMPJ5syecTft/X52wJyy0PhGsQptU8uBt+DasocM7XyI3ss1TDQaofv05vAt+CYdqp27YL76GqofDNQXs51+B4dDD8a9ehm/xfAKb1kV7tOE32PvB0K0nyZdeh6Fdx3Cbs47yWy9DcbkwDzuGtKv21ikIlhbjmPQl7vk/owT8qCoYO3YhafRx2IYd0+KC1yGnk223XIW/vJTcq24k/biTtbck5CvZTeFjD+Au3IqqqqQOHkrnux5AZzZrbxVamQhWoU2qeP4/uBb8SruX30Ofnau9HK5G9cLj+NauDIdq10PIuPNRnD98hevHr5FtKWQ9/y5Sg5AJlZfgnvEjvrkzUH3eSGu0XDWSwUjS/12KdeyJ1L7zEp6501EliczHX8bQvhPB3UXUTfoS9++/oIaCYDBiHTIK25jjMHbb9+myjdn1xEPULZhH0oAjaf/gfxvtXSeieL3sePFpqubMBBWSevWlxyP/FTUHDjARrEKbVPXua9RN+4GCF97BkFcQc02prabiifsJFm1DksDYow/ptz2IbDJTcdPFKLU12E4/j6TT40v7ASg11bgnfor3l5nhya5ozzW8Dso04Ci8K5egKgrmo0eSfOYF1H3zMe7f56KGFHTpmSSNPRHbmOORIkfC7K/qnyZR9vYryDYbXV54e79PiC3++D2KP/kAVVWxdOpCzyeeC68DFg4IMeAitEmywRietG94FgoQLNlN+YO3hkMVMPfuT8YdjyBbk/CtWIRSW4NstmAZd1LM6xqSU9OwXXwtaQ89h6F9p/DnqZ/wksC3YnF48kmSUJ0OKu64Es/8ORjadST92tvJeeFdkk89+w+Hqm/bVio+CO8My73i+v0OVYD88y+h0023I+l0uLdtZf3tN+CvX4omtDoRrEKbpOrCf3Xrl08BBLZupPzh2wlVlAFg6n84abc9GH3c9/w8DQDzyGORmxF6ug6dsT/wTDhciQ3X+odx3+rlyKnppN36AJmPv4xlyKhmF89uiuLxUPLc46gBP8lDRpAyfLT2lhbLHH8iXe9+EFmvx1O0g4133UIwcsS30LpEsAptUyAAgKwLz6p7li+m/LG7URw1AFgOH0j6zQ8gRRbXh6oq8K1ZjqTXYz3+tAZv1Dilqpy6Zx4kuGsHkU4rNPhIZDWBUlWBf9VSCPgbXPljyt9+Cd/unejSMsi7+ibt5f2WNmwk3e59GEmvx719G+vvvCWyckBoTSJYhTZJ9XrC/2Ew4Jo7g6rnHo1OOFkGDiXtxntjlmF5f5kJioJ5yDFxy6IS8f8+B8cDNxHcvA4AyWjE0L1XJFXjF766Zk6m6uHbCZaXxl7YD46ZU3DMnQWSTN71tzerd90SqUOG0+W2e5BkCffWzWx++B7UyDcqoXWIYBXapFBtuGdaN/k7qt54HjUYRAWsQ0aRdt2dsetDVQX33OlIsoz1xAl72xNQ3S5cbz6L6+3nUTwuUMHQqx/JNz9AsGR3ZCJLRbbHT/wEdhRS+cDN+Deu1V5qNl/hZsrfeRWAjDP+j6QBR2hvaRUZx4ylw1XXA1C7fBlbn/mv9hbhDxDBKrRJwcg4qmPKxOiC06QRY0m75ta4MU7fqmWEqiowHjEYfV67mGsNBTaswfHQzfgW/IKqgmRLIenS60m59WHc332K4gxX0TKPPJaMF94j5cqb0dWfXBApnKLUOah64j48yxbEvnkzKC4XJc8+ihrwY+nVl8z/u0h7S6vKPe1Mck4/E4CK2TPY/emH2luE/SSCVWh7FIVgWewjt23sCaRfeXPCvfqun6eCJGE7+SztJYhsJHB9+T6Op+4nWFGKChiHjSH1P69hGj4W97cf449sHtB3O4TkC69CknVYho4m44nXsJ1+bmTYIRzwit/Pnhf+g2dJC8JVVSl/5WkCZaXo0tLJv/W+P2WXVMcrriX1yIEAFL3/DtWLWvBrFhol1rEKbU5g905233I5RGquphx/GmkXXam9DSJrWstuuBhT70NJv/NR7WWCxTupe+NZgjsKkSTQ57Uj6cKrMfQKHxjoX7kExwuPoioqclo6aQ89h5yarn0bAkXbqH3jOXyREoSqqoLeQObtD2Hud5j29jg1E7+k8uN3QKej3UNPY+7VV3vLH6YGg/jLS/EU7yZQWYG/ogJfZQWeHdtxrF2NqoIhNZXDPvgMfQt3hwmxRLAKbY7z11lUvPJ0+NjrU88i7bxLtbdEOX/4CscX75N5938w9ukfc809czKuL95D9fuQDUYsJ52J9cQzo5NeSlUF1Q/cRMjpQDIYSbvnv+i79Ih5j4YUv4/a91/HNWc6RJbYytYksh56GmP7TtrbozxrV1L8yN0ooSBZl1xD6onNW7XQmEBVJd6dO/DuLAp/3LUTb/Fu/BXlKKFQtD5CuO5reAxDjRzMaMrN5ZCH/4s5N0/7tkILiGAV2pzKN1+gbtZUJFkK78E/6mhso47dO95ZT1Upu/VyZFsyWY88H21WamtwvPMivhVLQAJTr0OxXXx17PhrKMiex+4iuHUjSBLJl92IZfiYvdebUDdlIrWfvIMaUlBR0WflkvvEKwkLaIeq97Dz9msI1lSTMu4Esq+8UXtLo1QlhK9oB56tm3EXbsG7bSuebVsJOBwQKXy99xgXFX1qGqaCdphy8zEXFGDKK8CUm4c+NQ1Dejo6k6gh0FpEsAptzs7rLw6PsUZWPUmShKTTYxszHvs5F6OLPMb61q2i8vG7ybj5PsxHhk879S5fRO3bL6LU1aKzpZB87qVYRozVfAZwfvw2runfA2A9/jSSz/239pYmeRb/RtXLT6H4faiA5aijyb71gZh71FCIkofvxL1uNZa+/Sm4/7/QxOYCf1kJng3r8GzegHvzRrzbthL0hJedNex9ytYkzJ27YOnYGVOHTlg6dsLSqQv6ZpxgK7QOEaxCm+LfsY1dt1219+DAyG6o+rok+uwcsu54GGO7jlS98iTBHdvIeep1FL8Pxyf/wz37J0DCOnwMKef9O2FlLO+CX6l97SlUVcXU/whSb3kg4aTYvnhWLaPi2UdQfD5QVTKuvInkBkdjV330NtWTvg4fBvjYc7FVrxQFb+FmPOtW41y3Bs/GdQT27IHIYYLhVV8qclIS5i7dsXTtgbV7DyxdumMqaNesIt3CgSOCVWhTqr/6mD1ffkTy8NGofh+eZQshFD6/qj5LdPZUsu94mPJH7iDt0msxdujMnlefJliyC0NeO1IvvRZj70O1bw2RyayqB29B8XjQF7Qn48FnEj7CN5d39XLKnnwQJeBHtiRR8Nyb6NMzcS/+jZKnHkaXnkm7x19An56Od+tm3KuX4167Gs+GNYTcnuhZVgBIUrgHekhvLIf0xtqzN8b8di2qdiX8OUSwCm2GqqrsvPHfBEp20+7ZNzB16EywvJTKt17Cu3pZTLjKJhNykg3bmBOom/Q5EhK2U84i5dRzGi2MrXq9VD50C4FdO5CTksl8+Fn0ubGVs/aHe+kCyp55FDUUwjbsGFLPOp/dd11PyO0iZczxhGprcK9ZScjl2nvqqgqyxYqlZ28sPftgOaQ35u49xRlWbYQIVqHN8Kxdxe4Hb0dvt9PpnS/2Pu4qClX/exnHzCnRI1ckifBGASWEudehpP37OgwF7WPfUGPPq0/h+W0ukqwj486HMfXd9zKp5qqbPY2K159DBfTZuQTKSmMf6wHZasXSsy+WPodi7XMopi7d4zY7CG2DCFahzSh57j84f5tD6viTybo8vB2znuKoZefNl6M4HfXRGl7jOv5kUi++ep+Py84Zk6l5L7yVNPXiq7Ed27wq/U1SFHyb1+P87RdcC+cTqKqA6Ey9imQ0YT6kN9bDjsLatz/GTl32ayxXOPiIYBXahGBFOduuvRhCQdo9/nz4JNMI1+LfqHznFULVe6ITWqbO3fBv24KpR2/yHn2u4VvF8W/dSPnDd6AGAthGH0fa5Tdob2k2NRDAu3YlrkXzcS1eQKi2Orr0CUnC2Kkr1v6HY+l3GJZefZEMRu1bCH8DIliFNqH83deo/vE7zJ270vHZNwBQXE4q/vcqzl9nR++TJImMCy8nedyJFN92FYHyUgqefBVjp64N3m0vxVlH6d3XEawsx9zrULLuebzZB/zVU/0+vCuX4VzwK+5lC1FcruisvT49E3P/I0gacASWfoclXIUg/P2IYBUOesHqPRRecyGqz0feDXeQMmocrqULKX/zRYJ7KmPGVdPPvoC0s84HwDFjMlVvv4z9tHNIP+8SzbuCqihUPPUgnhVL0GflkPf4i8jNXOupeNx4ly/GuWg+3pVLCdXXNJUkDF26kXT4IKyHDcTUtbtY+vQPJIJVOOiVvfUy1VO+x5iXT8cnXqLiw7dxzJkRPh6F8KO/BKSefAaZDWoGKG4XOy47B2N+OwqeCfdyG6r5+hNqvvoI2Wwl99HnMHZofNspkd6te/HvuBbNx7t6OYo/XNhatlgx9R1A0hGDsB4+EJ04S+ofTwSrcFDz7d7JthsvRw0FsQ8fg3v9akKRSSAij/4AqceemHA76O57b8K3eQMd3/osJvA8q5ZR9p/7AJXsW+7DOnBozOvqhWqqcS2aj3vhfLzrV6MGgwDoMzJJHjQM8+EDMfbqiyzGSoUGRLAKB7WiR+7BuWwRhDume3dcRR79Aewjx5Jz/e1ICcrsVb7zCjXTfiD/nsewHnYURPbn77r9GkKOGlInnEu6pu5psKoS14JfcS2Yh3fTuuiGe31GFvahI0keMhJLzz5IskwwGCQYCVtBqCeCVThoORbMZ+d/HwAkLJ274N1eGLONFSB58FDyb7u/0fWeNT9+S+X7b5Bx3iWkTTgXlBC7H74T77rVJB11NLm3PwiSRKB4F86F83AtmIdv25ZomBpy8kgZMhL70JGYe/SKW7YVCoUIiGNNBA0RrMJBKeR2seXaSwlUVZJ8xFHkXHQFhTdeEem2hj/YDh9Iu7sfbnQnFYBz8e+UPPEgKWPGk3PNrVR99j7V33yKsV1Hsq64Ac+aFbgW/Y5v+9boawx5BSQPGU7K0SOwdO+JJEnICXrDAIqi4I+MtQpCPRGswkGp+LUXqJr6PbqkZLq//A6GzCw2X30h/uLdSJJEUp9D6fDAf5FM4VNYG+PbvpUdt16Ntf8RpJ18BsWP3xue9DKbUb3eaFDr0jKwHT2C5OGjsXQ/BEmSkWUJSZaRJSl8GquiRH/odDr0ej2qquLz+bSfVviHE8EqHHQcSxay/eG7kSSJjnc9SMqQEQCUvv8WVd99gaV7Tzo+8nSz9s2HHLVsufhMDBlZKAE/isMRDVPZYsE6cChJw47B2vdQZJ0+2juVImG6tyh07D8TnU6HwWAQwSoklPj5RhD+IkFHLTtfeApVhfTjTo6GqhoMoricmDp2oeNDTzQrVP27d1E9+TtUFfyVFQQdtagSGHv2Je3qm8l75QPSr7gBc59DQZJjQlRVVRRFif63lqIo0GBVgiA0JHqswsFDVSl86G4cSxZi7d6Dbk++hGwy4d1eyM7n/osa8NPlvy+gb2KdqL+0BMe8n6mbNwfv9vD5U0igz8nHOmIM1mGj0KelRx/1dTo9Ol04VOt7qfU9VlmWowGaiNkcrrjv9Xq1l4R/OBGswkGj9IuPKfkgPJ56yPOvo09Lp/L7b8Jt6el0e+JFDFma41ci+/MdC+dTPX0y7lUrUFUFkJCMRkyHHYl1+GhMvQ8Nj5fK0t7xU0nGbDahi6woUBQ1XK8PKXpdpwuHa6Keq8lkQpIkfD5f3DXhn00Eq3BQqFu5jC333Y6k19Pj6ZfRJSVR9PyTuNauxpCRQbcnXsSUH1sb1buziOqZP1Hz8wyCNTXR9a26Dp0wDxmJ+ehh6JKSkWUJWdZhMoUX8YdCoWhoWpsYUpCkBpNXsowSChEKhaLXRbAKjRHBKvzlvMW72HDT1ShuD13ue5hg9R52v/NauIq/PZXuT76AucF2U+eKZVRM/Iq6pQujbZLJjHHQUMzDRqHv2BlZksOHDRoMmC0WzCYTsizj9/vxeL3IkoRer8disUTfIxFZlmOGBlRVjS6vMhqN0fdsashA+OcRwSr8pYJOJxtvuRbvriLaXXIFzjUrqVm0AAC9LYkeT7yApWt31GCQ6l9mUzHpGzxbNkXrA8jZuRiHj8Y4eBi6JBuSLKHX6bFaLVgsFozG2K2mgUAAt9uDLEsYDEbM5qaXaxHpuer1BiQpHLT1a1dFsAqNEcEq/GXUYJBN99+JY8VS7EcMxLVxPaG68HIovcVKt8eextq9B1XTJlP6xScEqyojRwNI6Hr1xThyLIaefZB0MjpZh8lsItlmw2KxNLqgPxysbiRJxmIxY2hic0FDkiRhMBiiE1z1QSqCVUhEBKvwlyl86nEqZk5DZzCgBAPhbaoS6IxGut73KP7yUko+/5hAVSUAksWMftBQDMNHI2dmRx/nU1KSSU5OjuudJuLz+fB4vMiyhM1mazSAG1PfS21IBKugJYJV+EsUvf06xV99GlNLNfxRwn7UILzbt+GvKA+3ZeegHzEG/ZGDkIzhsdL6Mc+8vFxstgbHRu+D1+vF6/Wi1+tb9LqGtOEqglXQEsEq/Ol2f/oRRe+9FZ3Fb1hUpeF6e7lTF+SRY9H16Ycs65BkCVmS0RsMJFmtuNwuDAYjnTp2aPZCfbfbjc/vx2Q0YbU2PXHVGEmSMBqN0c8pglXQEsEq/KmKv/2K7a+/BGpkZ2lkEor6/5ZkpD6HIo8ci9y+A5Isk2yzEVJCBPwBJFkmLzeXlJRkduwoQlEV7Cl2srOzYj5PYxx1dYSCIWy2pGaPrzZUP9YqeqxCU0SwCn+akknfUfjSsxDTMw2fpoqsQ+p/GNLw0Ui5eeh1OjIyM8jOysJgMLBhw0ZUwGqx0KVLZyRJomrPHvZU7UGSZXKys0hOTm746RKqrq4BVOx2e9xY6b7IsoxeH64n0LCHLIJV0BLBKvwpiid+Q+HLz4frnDYsVm3Qox4xCIYfg2xPxWK1kpuTQ1ZWZnRHVElJKeUVFehkma5du0TXnqqqys5du/D7/Oj1evLycjE1Ue1KURSqq6vR6fWk2pt3thWRXmo4hOt3ZEkEg8HoKgERrIKWCFbhgNv93TcUvrz3CGoJwGhCPWIg6rCRyCl2MtLTyc3NJTXVHtMbDIUU1q1bh6IoZGdnk5eXG71GZJZ/9+5iVFVFr9eTn5/X6CO+3+/HUVeHxWwmKSlJeznG3p1U4R51/Q4sRVEjW2bFziuhcSJYhQNq93ffsDXy+A8SsslE6PCjUIaOwJCaRl5eLvl5+Vgs4YImWiUlpZSWlWG1WOjevVvCx3eX201ZaRlIYDQYycnJThiubo8Ht8tNcrKtyZ5tKBSKFmUJr0CQkaT40oEiWIXGiGAVDpji779j03NPA+G1qcphRxI8eji2/Hzat29HTnZ29HE/kWAwyNq16wDo0aN7k9tPax0OqiqrkGQJg95AdnZW3LpWh8OBz+8nIz09YUCHQiGCwRCgIss6dLrwdtbG1AerqG4laIlgFQ6I3ZO+Y/Pz4VA1HT0M1xGDCKWkkJGezpFHHqG9PaGinTupKK+goF0BuTk52stxHA4He/ZUhzcZ6HRkpKfHFFmprq5GUVUy0tNjXhcKhfD7A6iqEg1UvcGwd7VCI0SwCo1p/NuxIOynkp9+ZNNzT2Pt2JnDX3uL5H9dRMBmAxUyszK1tyfk8XioKK/AlmxrVqgCpKSkkJ2dhU7WoSoqVVV7qK6ujhatDgSCGPR7hwhCIQWXy4Xb7UFRQuh0eoxGQ3hSKuadE5ManDAgCA2JYBVaVfmc2Wx68Tm6XHEVR/7vA1J69yUQDIAKKuo+J43qbd++A0mW6dxpb1Wr5rBarTFjrC63m7KycpxOZ2SCS0coFMLpclFX5yAYDKLX67BYLJhM8dtVmyJCVWhM8/8WCcI+VC74nZKpUxj43sd0/NeFyHp95IqESjiEmpo0qldRUYnD4aBDh/Zx46TNYTSGJ7CSU5KRgJASwuVyoxI+n6qmpha/z4/BYMC2j6ItjalfuSDCVUikZX+bBKERrp1FqKEQ/Z94Gkt+fsw1uX75lKqGC/Q3IRAIsH37dtIz0snMyNBebjZZlkm120lPT0eqD3YVApH1p3Z7CklJSU1Onu2LmuBUAUFABKvQWpIK2pE1dJi2GQCjyRgZCgivJW3K1q2FyDodXTp31l5qkWAwyJ7qaqqq9qCqSqSHGf5FhE8U+GN/9et7rGJjgJDIH/vbJQj1mggqi8US7TE6nU7t5ajy8nKq9uyhW7eu+92TDAQCVFZWsnt3MU6nE7PZTGZmJnqdLnpwoNvtoba2NrK0av+EJ660rYIQ1vi/BkFoJSnJydHJq+rqau1lALxeH1u3FlKQn489JUV7eZ98Ph+lpWUU7dyJ0+kiOdlGfl4emZkZGI1GgsEQJpOJtLQ0rFYLwVCI2tpa3G73fj3Oh18TXm0gCFoiWIUW29fjvJbdbkfWhf+qVVZWEggEYq6rqsq69esxmkx06NA+5tq+OJ1OinbuZMeOIlxuF+lpaXTo0J709HT0kckzr9eLoijRWX+bzUaq3Y5Or8Pr9VHrcETvEYTWIIJVaDZVVamtrU24XbQpOp2OtLQ0VBWCoRBFRUUx17du3YqzzknPQ3o0a+wzFApRWVnJpk2b2VG0k2AgSHZ2Fl06dyYtLS3uPcJnXMkxKxL0ej32lBSsVgtSpMfrcrnwer0xJ7E2KrKGdX96u8Lf377/FgtCJMyKi0tISUmJKZLSXPl5edHJo8Jt23G53ABUVFayc9du2rdv1+QaV1VVcTgcbN++nbXr1lNcXIJOr6N9+3Z06dKZ1NTUhL8uRVHweDxYk+KPuZYkCbPZTEpKCobIsq5AIIjX68Xj8RIIBBrvxYpAFZogtrQK+xQMBlm3bj19+/aJ6w02VyAQ4Oc5cwkGg8iSTIo9mb59+rB8xUpMRiMDBx4V996qCk5nHdXVNVRXVxMMBtHp9djtKWRnZTUZxPVqa2txOOrIy8uNDg00JhQK4fOFSwCGywPK0Y86XbgYS33ZwPoygqFQUPs2giCCVWhaMBjk13nzGXL04GYt7m/Kho0bKdy6LXrEiqyTkZAYMOBQMjPDW139fj8Oh4PaWkc4TEOhcM/SZCIzM5OsrCyMxuYNRSiKwq7du7GYzWRlNe+EASKvCwSDKCEl8muVomUD6z/KsiyGAoRGiWAVGqWqKjNmzqJbt65/eF0pkZCeM/cXAoFAtNdnsVho364dbrcbp8uJz+sDKRxmsk5Heloa2dlZjT7qN6W2tpbq6hpyc3MwmxOXJWyKqqqEQkq0/mq4hGB9KUGx80ponAhWoVFLli6lqGgXE04/VXupxUKhENXVNWzZupXqPdXRXqu2R6jT68lITyczMyNmZr+lQqEQO3fuwmg0kK/ZCbY/tAEqy3J4E5kIViEBEaxCQrt3FzPp+x84bvyxdOnS8t6qoihU19RQWVFJRWUltTW1KKrSIEz3ftQb9HTq1JFUu52UlJT93hzQUHl5BU6nk7y83CbruDaXGqmQVV/0un4oQBASEcEqxAkGg3z2+Rd4vT4uveSiZgWdqqrU1NZSXl5ORXkllVWVhIKhmBC1WCwoitJg7HJvuPbr15ecnGzt2+4Xn8/Hrl27sVgs5OfnaS83W32YhhQFVDVunFUQGiOCVYizePESFixYSPfu3TjuuPHay1EOh4PS0jLKysoor6jA5/M3mEXXkZaaSnpGOhkZ6WSkp2MwGJg1+2cURcFoDC/WD0Unp8wMGnTUflWzakhVVXbu3IXf76ddu3aYzS2fcFNVlUAgSDAYBClcRKa+AHb92Kp2BYMgNCSCVYjh9/t5970P8Pv9DB1yNEcccXj0mtvtobi4mOKSEkpLy3C7XdElSCaTmazMDLKyssjMzCQjIxykDW3ZspX1GzYiyxLdu3XDbk9h5arV4QkhSSI9I4MB/Q9t8SRVQ1VVe6isqiTVbienmQWy6ymKgs/nJxgMsPdEVhmDQR899rp+Xass68LrcgUhARGsQozVq9cwa/bPyLLM6NHHYLVYwmFaXEJNbW10VtxuTyEnO4fsnCyys7LjTlfVUhSFmbN+xufzYjKZOGbUSAwGA5u3bGH7th3RSayCdu04pEd37cubxev1saOoCFmS6NKlc7OGMIgMfXh9PgL+QPhEVklGr9dhNJnQ63Qxvy9FUVBVtdnvLfwziWAVYnzz7UR27twZs6zIaDSEj57OzSUnN4ec7JxGT1VtzLZt21m1ejWyJNO3bx86dw6fDKCqsHbdWkpLyqLjre07tKdb1y7at2hSKBRi2/btBPwBcnNzSUtL1d4SJxAI4HK5o8u/dLrwtleTydRocAaDoVYpOyj8vYlgFaJUVeXV194gEAggyzKDBw+iY8cOZGVmNho0zREMhpg5axY+r48UewojRwyPCSZVVVmzdi3lZRXRcM0vyKN7t25N9oIb2rV7N7U1tdhsSXTo0KHR16mqitfrw+V2EfCHf596vR6LxYLFYm70dfWCwSCyTicmr4QmiW+7QpTDUbe38pSq0q1rF3Jzcv5QqAJs2rwJj8cDEvTp0zuutydJEv369qWgILzeVEWlpKSUNWvXhieQ9qGqqorq6mp0Oh15eXkJw1FVVVwuF2VlZVRVVeH3+zGZTKSm2klPD5cSTPS6huqHAZq+SxBEsAoN+Hy+6H+rgM/XsvKAibhcLjZv2oKqQkFBPtlNbC3t2fOQvYcHqirV1TWsWLESh8OhvTXK5XJRXFIKKmTnZMetKlAUhdpaB7t27aaispJAIIjNlkR2Vhbp6WnRI6ybo37danPvF/65RLAKUdqeZFOB1lxLly4jEAxiNBro17ev9nKczp070bdPb3R6PagqHq+X1WvWsm379rhyfj6fj8Jt21FCIeypdtLT0qLXgqEQVVVVbN+xg8rKSmRZJiM9g3btCkhNTd2vHV31S8MEYV9EsApRycm26H+rqkplVVXM9ZbavHkzZWXlgMqA/v2bXcQlKyuLwwb0x5qUFK40qKqUFJewYsVKqqqqUFWVYDDIlq2FBAMBTGYz7QoKoP4kgbIyCgsL2bOnGqvFQkFBPgUF+SQn2/Y7GOs3CwhCc4hgFaLqjy6pt3t3ccz1lqiprWXVqjWoqLQrKKBdu3DwNVdSUhKHDegf3TmlAn5/gM1btrJu3Xo2bdqM1+NBb9DTuVNH6pxOtm/fwZathdTV1ZGelk6XLp3Jzc3drwIsWqFQCDVBr14QEhF/S4QYXRsscyorK8Pj9cZcbw6/38+8X+cRCAaxWqwcfvjeTQYtodPp6Nq1C3369MZkNEYX5LtcLlzucKHspKQktm4tZMf2HaiqSvt27ejerRuZmRl/eNKtoWAoFN7Oup89XuGfRQSrEKNf3z7R8FAUhQ0bNmpvaZKqqvz++wIcdU5kSWLw4IHNrp/aGKvFEj7ahfCkVsOPNdU1+P1+2rdvR+fOnUhJSda+/A9TVTVc90AEq9BMIliFGKmpqfTq1RMigbJixcq4SaOmLFm6jJ27dgMqffv2iRawbilVVamsrGTt2nUsXryEktJSZEkmPT0ds8kcE66qqrJz125KS0sPyDhoeMmXityKPWDh701sEBDieDwePvzoE9xuN5IkcfTRgxk08CjtbXHWrV/PkiXLkGWJ9u3bM2L4sBb38JxOJ8UlpZSXlRMIBtDJMmnp6eRkZ5Geno5Op2PpsuUooRBWqxWdTofH641WnTIa9GRmhpdStdZQgMfjQVFUkhKcmyUIiYhgFRIqKtrJt99NhMiJphNOP7XJgtGbNm1mwcKFgERaWirjjx0Xt6a0MW63h9KyUspKy6lz1qGTdaSm2cnOyiZHsza1ttbB+vUbkGSJHt27k5pqp7q6hvKKcnxeX3gbriyh1+mx2WykpKRgsyXt96STqqo4nS4MBn2rTIIJ/wwiWIVGLVu2nF9+nYckSVjMZk499ZSENVO3bNnKvHnzIXLf8cePJyUlRXtbDKfTSUlpKaWlZdTV1YXXmWZkkJuTQ3Z2NiZT4lDesHETNdXVJNls9OvbJ+ZaXV0de6qrcdY5I+X+IvVeZR0Wsxmr1YLFYsFoNDZ7Havf78fr9WGxmOOqdQlCY0SwCk1atHgJv/++AEmSMBmNjBw5gp49D4le37hxE7/99jsqYNDrGXfsOHIThK+iKFRUVFJaFn7Md7k96PU6srKyyMvLJTcnd5+TXB6Pl5UrV6ICvXoeQmpq4kIroVAIh8NBndOJ1+NFRY07uUCv02MymzAZTegNegz6cGlAbc+2rq4OAJstmRaOagj/YCJYhX1auXIVv86bj6qqyLJMx44dOXrwQIpLSlm4YCFIEjpZZvjwYXTr1jX6OqfTSWlpGaWlZZRXlBMKKdhsVnJz88jNySErK7PZPUcip7xWVe0hIz09Jtyboqoqbrcbj8eL1+uN1kKoD9n4Y651GI0G9AYDsiTj9/swGIxYrX/8eBfhn0MEq9As27fvYPqMmfj9fmRZjv4gsmh+4FFH0q1b10iQllJeXoHL7cJitpCdnUVOTjY5ubmkJO/fciiHw8GqVavR6/UMGNB/v8c7VVUlEAjg8/kIBAIEAkFCSghU4kK2/qPNZsNgaP43AEEQwSo0W53TycwZsyguKQkHa/1MvNFIcrINZ52T1LRUMjMyyMrOJic7i5SUlBavDNBSFIWly5bh9fjo0qVztApWawoEAjidTvz+gGbIQNcqvwfhn0UEq9AiiqKwZs1aFi1eEq5N2qB316d3HwYOPDJunPKP2rxlC8XFJaTa7fTvf6j28h+iKAoulxuX24WqqEiyhEGvR1HD47Jmi5kkq1hmJbSMCFZhv9Q5nfz22+/s2FEUPc5EliUyMjIZNvRoMjIytC/ZL+Xl5axbvwGDXs8RRxyxX4cDJuLxeKhzOvF5fSCBXqfHYjFjtVoBidraWmRZIiXFLoYBhBYTwSr8IaWlpSxcuJiKykokKXwAn07W0bNXT/of2q/ZFa0Sqatzsmz5cpSQQr9+fcnM3P+wVlUVn8+H0+nE6XShqCo6WcZisZBkS8JiNkd72k6nC4/HjcFgJDXVrn0rQdgnEaxCqyjauZOVK1dRURGufSpLEiaTib79+tCjRw8MLZj9B/B6vSxavISAP0Dnzp3o0qWz9pZ9UlU12jN1OV2RoYtwmNpsSSQlJSVclVBRWYmqqNhsNrEaQNgvIliFVlVSUsq69evZvbsYCZBkGbPJxCGH9KBbt65YLPsOKp/Pz+IlS/C4PeTkZNGvX79mTx6FQiEcdXXU1dXhdLpQFSUapvZUO7akpmf4A4EAVXv2oJN1ZGSkt/p4sfDPIIJVOCDq6urYsHET27dvx+8PIMsSer2BdgX5dOrUiZyc7ISh5fP5WLxkKS6Xi1S7nSOPPKLJPf/BUAhngyD1+nxIkZKDVqsVuz0Fu93e7F1Tjro63C43FosZu10MAwj7RwSrcEApisLOXbvYtm075eXlqJH1ohazhYJ2+eTn55OVmYksy7jdHhYtXozH4yHZZmPQoIFxgej1eqmrc1JX54iMhXpAkpAlCb3BQGqqnVR7KikpyU0GciKqqlJWVo6KSnpaeqPbagVhX0SwCn8an89HUdFOdu7aRXV1NRJSeHmTwUBmZibOujp8fj9mk5nBgweh08k46upw1jlxOp3UOZ3hcdLI+lmdTkdSUhJpqamkpaWSlJTU7CGDRDweD9XV1RgMRrKy9q/coSAgglX4q/h8PoqLSygrK6OyqgolpEQX5luTrCiKEgnRvXv8ZZ1Mss1Gamoqqal27HZ7wsmn/VVZWYXP5yM11U5SUpL2siA0mwhW4S8XCoWorKqisqKSyqoq3C53uDqVLEeWcMnYkpIoaFdARnp6ZK1p6woGg5SWlaGTZXJzc/9Qz1cQRLAKBx2/3091dTVVe/bgqHXgqg/ayBCAwWAg2WbDlmwj2WbDarViMpn+UO+1qmoPbreb5ORwjzgUClFYWAgQDfKCggJUVaW8vJycnBzNOwjCXiJYhYNeMBjE4aif+Xficrvw+/zRSSspUhDGbDZhMVuwWC2YjEYMRiMGvT76MdEqBCJBXlpahiRJ5OTkYDQaCAQCLFq4kB9//IHzL7iAZ595hvsfeJDKygqmTZ3Kffc/oH0bQYgSwSq0ScFgMHpaqzdSEtDn8+09TbVBkRhZkpB14Z6uQW9Ar9eh0+vRyTI6nR6/30cgEMRqtZCVlRXzed58/XWuvPpqXn/tNex2OyaTierqai67/PKY+wShoTYTrJ9/9ikARqOJCWecob0cY+J33+L1esnLy2fkqFEAbNq0iWVLlzBk6DA6dOigfUmbtmP7dj777DMqKsqx2+3cedfdmEwmVFX9x40VhkIhfD5fpCxgkEDATzAYIhgMoigKodDe01YbjuGGe6vZcRsY6oP1nbffxmAwkJqWSkV5hQhWoUltJli7NdjS+NPUafTo0SPmer1thYUcO24sqqoyfMQI3nv/AwA+/OADHnn4IV586WVOPOkk7cvarD179nDs2DHU1NSg0+mw2WwsXb6C2bNm8c03X/Pqa69rX/KPpqoqqqqGg1ZVUSIn0KqqmnAlwPp16+jVuzdr16zBbDGTmppGaWkJffr01d4qCFGJB50OUvULvqf89JP2UtSPP/6obQKga9eunD5hAgXt2mkvtWm//voLNTU1nHX22axdv4GFi5cAcMvNN7GzqEh7O+vXreP9997js88+5YP332f58uXaW/7W6nuoRqMRs8mE1WrFarUmDFWAXr17A9Cnb1+6du1GRkaGCFVhn9pUsHbq3JmcnBymTGkqWH+gd5/YQ+YAhg4bxtPPPMuAAQO0l9q02ppaAIYNG44+cm5TYzZu3MiGDRvYs6eKHdt3kJqaSmVFBSv+YeEqCAea7r777ntI23gweunFF8nMzGT0mDHMnjWL8ccdT2Zm7O6Y9evW8eorr/Dvf/+befPm0bFjR0477fTotcmTfyTVnkpqWlr0NT6fj0kTJ/LBe+/xw/eTWLNmDbm5uaSnp0fv+fSTT6iprUFVFJ566kl+mTuXrOwssrPDS27Ky8v56MMP+eSTj5k+bRpFRUV06tQpbr1lKBRi8o8/8uEH7zPxu4ksXrSIUDBI586d48ZC3W43X3/9FR998AE//PA96zesJysri/T0vaXzPnj/fRYtWsjWLVuw2ZLZtXsXHreHWbNm8usvvwAg63R4vT7atWvHjz98z7nnncd3333Lw488ygvPP8eNN93E1ClTGHDYYQ0+uyAIf0Sb6rECnHhieHw00XDA5Mk/YrUmMXrMGO0lFi9ezGOPPMLatWujbcXFuznpxBO4847bmf/bfLZt3867//sfJ51wApMbDCk89eQTfPTBh5z/r/P48osv+OSTj/ll7lwAZs6Ywbgxo3n2madZv349a9as4aknn2Ds6GOi4UYkVC+9+CJuvulGfvnlF3bt3MkPP3zPlVdczhWXXYaq7h3q3rx5E8cfN577772XBQsXsK2wkLfeeIMTjjuO9979X/S+l19+ibmRX8dPP03mpRdeYPasWbz0wgv4/X4qKip46YUX+Hn2bAAMhvDe9+rqam647jrGjh0Xbt/H6aiCILRMmwvWAYcdRn5BQcLhgMk/TmbM2DFxM7uNufWWW9i+bRsPPfwI8+b/xg8/TmbK1GmkpaVxz913UVtTE7335zk/07lzZyZ+/z3vvv8+Z5x5FkVFRdx04w2YzRa++W4iU6dNZ/qMmXz+5ZfodDquv+5aSkqKAZgxYwbz58/nuutv4Nd58/lu0iR+X7CQMWPH8vPPs/n113AI+/1+rrz8cspKS3n+hRf55dd5/DD5J2b9PIcePQ7hP48/zty5cwBYsnQZt91+OwBPP/0My1as5N7772fZipUkJSVxyCGHsGzFSu6+557wewf8qKpKWloa995/P4sXL4JIqTxBEFpPmwtWSZI44YQT2bplCxs3boy2r1ixgp07izj55FNi7m/MhvXrWbxoEWPGjuX8Cy6Itnfq3Jlrr7uefv0OZeeundF2VVH475NP0bdvP0aMGElOTg4fffABXq+Xe++7j0MP3XsW0xFHHMkdd96F0+nk448+AqCkeDcAHTq0j95nMBi4++57ePqZZ+jatRsAM6ZPp6ioiPMvuICTT9n7eykoKOCZ554D4J233o62t8SYMWP56MMPGTXqGHJychg8eDCffvIxgwYfrb1VEIQ/oM0FKxBdLvXT5MnRth+//x673c6w4cMb3Nm4lStXAjBixEjtJf51/vl8/Omn9O3bL9qWnZ1NO82KgqVLlyDLMmPHhR+pGzp2/HgAliwJz9IfffQQdDod99x9N1ddeQWfffYpxbt306lzZ06fcAYFBQUQeU+AseOObfBuYT179qRjx44sXboERVG0l/epQ4cOHDN6NGVlZXz26SfUOhwMGjyYXr16aW8VBOEPaJPB2q9fPzp06BAdDlAUhSlTfuK444/HaGxeDc2qqkqAuAmwxqQ1mPCqt2dPdeT4jviiIKmpqZhMJvbs2QNAz169eOmVV8jLy2PmjBncf++9jBwxnJNPOpHPP/8sOsZaWRn+deVkZ8e8X73s7Bz8fj9Op1N7qVnat2/PJZdeyrnn/YuLL74k2lMWBKH1tMlgJdJrLdy6lQ0bNrB48WLKyso46aSTtbc1SqcLL0vy+/3aSwkl2mdev6c8kVAohN/vx9zgML3x449j9py5fDfpe26+5RYOP+IINqxfz3333MNbb74JgMkYvt/n80Vf15DH40GSJFGEWRAOYvFp0UaccMKJAEybOpUpP/1EVlYWgwYP1t7WqE6dOgKwefNm7SWWL1vG/51zNlOnTtVeitGlSxc8Hg9bt27RXmL9+nWoqkqHjuHPU7h1K5N//BFVVenXrx/XXnc9X3z5Fd98NxFJkvh+0kQAOkd2mK1bt3f1Qj2v18vWwq3k5ORgMpm1lwVBOEi02WDt1bs3Xbp2ZeqUKUybOoUTTzopYa+yMUcPGUpSUhLffvtN3GP1559/zpLFi0lPj3/8b+jY8ccB8Pprr8W0q6rKG5GtpOMi46/vvfcuN95wPfPm/Rpzb8eOHdHr9dHhhGPHH4cky7z37rv4vN6Yez/68EPcLlfC8VctvcGA2+3WNguC8CdofhIdhE444UQ2b95ERUUFJzVzNUC9lJQUbr3tdkqKizn3nLOZNGkic+bM4d577ubbb75m7LhxDBw4SPuyGKeceiqDBx/NxO++4+qrrmTGjOlMnz6NKy6/jKlTpzBkyBBOPuVUAC648CKMRiO33HQT7/7vHebN+5VJkyby70suJhgMcv6FFwLQrVs3LrnkUtavX885kV/Xzz//zEMPPsBTTz5BfkEB199wg+ZXEi8rM4sdO3Zw5x138O0332gvC4JwALWZYDWbzXEHy5140kmYzWa6dO0as1VVQoq7X6eTMZvNyLq9v+ULL7qIJ558iurqam69+WYuu/QSvvv2W8477188/8KL0fuMRmPc5wbQ6/W8/b//ceFFFzFv3jyuvvJKrrnqKhYvWsRll1/BW++8E61v0KNHD95+539kZGbyn8cf5+ILL+TWm2+mvLyc/z7xJKeeelr0fe+5917uvf9+SoqLufXmm7n835fyxeefc8KJJ/LV19+QkbF395Vepw//vjS99RtuvBGbzcY3X3/F1199FXNNEIQDq81UtzqQVFVl586deNxu2nfokHCWf198Ph+7du1CVVU6duyYMIjrlZWVsaeqihS7PbrMKhFFUdi1axcet5t27ds3WiikMcFgkLq6Oux2e1zwCoJw4IhgFQRBaGWiGyMIgtDKRLAKgiC0MhGsgiAIrexvN8bq83rDZ9NH1nCaTCYsFgvp6enRGfoDyev1smdPFR6PB1UFi8VMRkYmZrNY0N+Qz+ejoqICj8cDkT8nq9VKenq6mGgT2rw2H6x1dXXMmDGDuXPmsGLFcoqLi1ETFCjR6XTk5ObSp08fBg0axMmnnBqzbGl/FRZuZfq06SxdsoS1a9dQUVkZ9/klSSI3L4/DBhzG0GHDOP6EE0hJSYm5p6Vqa2p4+eWXYtqOOuooxh93fEzbwcLhcDBt6lR+mTuXFStXUFpSElODtp5eryc3N4++ffsycNAgTjnllJjC5ILQFrTZYK2treX1117l888+i9s51RxGo5F1G/aWHWwJVVWZNm0qb7/5ZrRKVkuYTOGTZq+++hrym1hu1ZRdu3YxakRsJa8LLryIBx86uA6EqK6u5tVXXuaLL77Asx87wex2O0uXr9A2C8JBrU0+c82fN4/jxx/LO2+/vV+hyh8o7rx582b+7+yzuO6aa/YrVIk8Bn/26aeMH38s77/3bsKe29/B7FmzGH/sON5/7739ClWAYOQUVUFoS9pcsE6a+B2XXnIx5eXl2ksxDsR46vffT+KM009j6dKl2kv7xeN289ijj3LdtddExxr/Lj777FOuvOJy9lRVaS/FOBB/ToLwV2tTQwHLli7lvHP/j2AwGNMuSRLDhg/npJNOpv+AAbQrKMBssUR3HpWXlbF+w3oW/P47M2fMoKamBkmS2Ly1MOZ9mvLRhx/yyMMPJexdSpLEkCFDGDV6NP0P7U9BQQEWq5VQKMiePXso3FrIwoULmDplCqWlpdqXQ6QQ9lvvvNPsY2UO5qGA3+bP5+KLLowrxi1JEqNGjeLEk07i0EP7k19QgNlsJhAIUFdXR1lpKRs2bOC3+fOZNWsmDoeDJJuNlatWx7yPIBzs2kywqqrKSSecwMaNG2La8/LyeP7FFznyyKNi2htTfyrrSy+9yLz5v2kvJ/TjDz9w8003JgzVcccey+2330GXrl21l+KEQiG+nzSJp596MmGP+9jx43n1tdfjTmxN5GAN1mAwyPhxY9mxY0dMe/v27XnhpZfp379/THtjvF4v33z9Ne+9+z9mzv5Ze1kQDmptZihg/rx5caFqt9v5/Msvmx2qRCaOzj7nHKZNn6G9lNDGjRu568474kLVZDLx9DPP8PobbzYrVIk89p4+YQJTpk1PeITM9GnTeOft/TvP6mAxe9asuFDNyMjgy6+/aXaoEim686/zz2fSD3tPyxWEtqLNBOucOfG9lssuv5yCgthzqJqrOQVNQqEQd91xB15NXVSTycRbb7/D6RPOiGlvLrvdztvv/I9jjhmtvcQLzz/HtsLmD1EcbBL9OV19zbVkZWVpm5ulOX9OgnCwaTPBmqjS/5Chw7RNrWrSxImsXr1K28xj//kPQ4f9sc9tMBh4/sUX6dylS0y7z+fjmaefjmlrSzZv2qRt+sNfK0Foa9pMsNY56rRNJNts2qZWoygKr2gW4BMpbn366RO0zfvFZrPx+H/+GzemOn36NLZsiT/upS2oS7D8LSU5WdskCH9rbWby6vzzzmPBgt9j2t59//2Ex1e3hnnzfuXiSFX/ehaLhdlz5u73Y21j/n3JJcydOyem7eJLLuG++x+IaWvoYJ28mnDaaaxaFbu+t6Xj4K1lx44dzPn5Z9avW0dpWSler5ekpCTy8vLo268fo0ePIbuR03AbU1pSEvPNQyfLcWPs69at5Ze5v1BaWoperyM/v4AJEyZEd5Bt2bIZ7Txo165d92srbyAQYPv27TFtSVZrszeerFi+nPnz57Fx40aq9+whFFJITkmmQ4cOHH7EkYwcObLF9YkLt24l1GBFSLLNRm5eXvTnoVCIefN+ZdmSpVRXV2OxWOjWvTtnnX129B6v18OaNWsoKCggLy8/2t5WtJlgvefuu/jyiy9i2iZMOIOnnnkmpq213Hn77XzzzdcxbRdedBEPPNj6wTVnzhwuu/SSmLbc3Fzm/Rb7jaShgzVYb7zheib/GDvhdP4FF/DQw4/EtB1Iq1at4tlnnua3+fPjJh0bkmWZ8ccdz5133UW7ds0bq7/m6quYPm1a9OepqaksWbYcgIqKCu6+886E48wff/Ipg48+GoAL/nUev/8e+2f74UcfM2To0Ji25vhp8mRuuP66mLbb7riDq666OqZN64fvv+fll1+icOtW7aUYSUlJnH/BBVx73fXNDtjDB/TH4XBEf3788Sfw8quvArByxQpuv+1WCjXzCA2XP5aVljJr1iz8fh/pGRlkZ2VHv3ZtRcu/Rf5Fjh4yRNvExInf8fPs2drmP0xV1YT/OM46a+931NY0bNgw7HZ7TFtpZE1nW5Poz+mLzz+PC5IDQVEUnn3mGc6ccDrz581rMlSJ3D/lp8mccNx4Zkyfrr3cIpWVlZx7ztkJ/95oTTjzTG0Tkyfv3+qHSZHTfevp9XrOOCP+/es5HA4u//el3HzTjfsMVQCXy8Wbb7zBKSedyNY/ODy1aNFCzv/XeXGhqrV27Vp69epF+/YdKN61u00eitlmgnXcuGNJS0+PaVMUhWuuvooPP/hgn/+IWmL7tm1UaXYM5RcU0Kt375i21qLX6xk4KP7gwpUr2t4e+ZNOOplkzZhqIBAIn9v1xecx7a0pFApxy8038fprr8ZtTCDSI2ps84Xb7ea6a69h5ozmLcFL5M47bo97JG/M+PHHYdPMD0ybOrXF26xrqqv5Ze7cmLbRY8Y0OlRVVVXF2Wedyc8/Jw5/g8GA0WjUNgOwfft2/nXeuezcuVN7qVlqa2q48frrm7XDsH7OYeXKFXTr0R2asa77YNNmgtVsNnP77XdomwkEAjzy8EP869xz2bhx/4qqaK1bt07bxMCBA7VNrerQQw/VNsWt220LbDYbN958s7YZr9fLvXffzcUXXUhh4b57Si316COP8OMPP8S0GQwGLrjwQiZ+/z3rN25i9dp1rFy9hrff+R9Hax4tQ6EQt916C8W7d8e0N8ecOT8zd87eMfJu3bsz4Ywz+b9zz2XUqGOwWmOXjFmtVo47PrYKWU1NDfPnz49p25effpocF8bn/N//xfy8ntfr5dJLLmaLZnVNWno6d951Nz/P/YV1GzaybsNGfl+4iP8+8SQdOnSIubeyspIbrruO0H7Ub3jttdeoqKiAyBDMkUcdxbnnnceZZ53F4UccETO+3LVbNzZv3sz5519ATXUNen3b2/bcZoIV4Kyzz+bU0/aeZtrQokULOfnEE7jv3nsoLSnRXm6RoqLYBe4APXv21Da1Ku0ECEBxcbG2qU248MKLGHfssdpmAOb9+isnHHccDz/0YPQf2h815aef+PijD2PacnJy+Obb73jwoYfp27cfer0eImOGx4wezUeffMpNmm8ATqeTJ554IqatOd5/7z0A0tLSePOtt5k6bTpPPf00jz3+H955913m//47PQ45JOY1ZyQaDvgx9hvDvkyaNCnm5/kFBQwfPiKmrd5/Hn+MtWvWxLQNHDSIGTNncvkVV9C+fftoTzErK4uzzj6bn6ZOY9SoY2Jes3r1Kr78MnauY188Hg9fRp5W+vTty+QpU/n8iy959LHHeeLJp/jyq6+ZPnNW9P4OHTowfvx4NmzcwKH9+x+wCeoDqU0FqyRJPPX0M1x40UVxS5SIDA18/tlnjBl9DI8+8vB+/8MtKYnfz5+f37xZ1v2VnRU/O125n7/+v5osy7z40sucfc452ksQ2fb60YcfMnrUSP77n/9QXV2tvaXZ3G43Dz/0YExbcnIyH338Cb379Ilp17ru+hs44YQTY9qmTvmJXbt2xbQ1xeFwMH/ePKxWK+9/8CFjxo7V3kJycjLpmmGso44aSMeOHWPaZs6Ygc/ni2lrzK5du1imKQZ09tlnJ1xZsHLlSj779NOYtr79+vHue++Tmtp4rVuz2cyLL79Mu/btY9r/18LdgfPm/UpdXR1du3Xjo48/oXv37tpb4r4W9tRURowYSY8ePWLa24r4P4WDnE6n44EHH+LZ554nNTVVexkii+w/eP99xhwziief+C81LfyHW1tbo21q9HO1lhR7fOFr7Y6vtsRoNPKf/z7Bf594Mm7MtZ7H4+F/77zNqBHDef7ZZ2Nmkpvrs08/obKyMqbt/gcfSvgEkMgtt90W801aURR+bEHPUVEUVFXllltvo0/fvtrLTZpwRuzOvbq6urgx08b88P2kmHkFnU7HmWeeFXNPvVdeeinmXqPRyIsvvdysUy2SkpK4+pprYtq2b9/eovH/YDCILMu88MKLf7jAe1vR5oK13imnnsq0GTM59bTTkBJ8lybSm3n7rbcYO2Y0X37xRbMnuBL1GoymxIP6rcVoNGmbCAZbPpZ1sDnr7LOZNmMmxx9/fMKnDCIzz6+++gpjR4/mu+++1V5u0hefx06I9ehxCKeffnpMW1M6depEv36x49vzf/015uf7kl9QwPkXXKBt3qfTJ5wR9zVpbqhPmhg7DDBq1KiYtaL1SkqK49ZIn/N/58b1EJtywgknxvWE58+fF/PzfTn5lFMO2OTvwShxIrURGRkZPPvc80ycNKnJbZM1NTXcc/ddXPCvf+338MCBDrlEEwIHOsz/LNnZ2bz86mt89fU3DBwYv/qh3p49Vdx+661cesnFzRoe2LJlc9zSnTPPPisurPal/4ABMT9fu3ZtzM/35ZRTTomO4bZEfn4+QzTL02bPnr3PmfN1a9eyZUvsJNTZ5ySetJo5Y2bcKomzGyzEb47k5OS4J4CWfo0m7GddjbaqTQdrvT59+vLBhx/xyaefMXhw4wuJFyz4nVNOOnGflf8TPSK5XS5tU6tKVGE/Jfnv9dg04LDD+PTzz3nv/Q844sgjtZejfpk7l1NOOnGf63iXLokvOD5kSMsX2Wdnxy5PcjgcLRqWGPoHalZM0Kw59bjdzJ61dyInkUkTY9eu5uTkMOqY2EmmekuXLon5eXp6+n71HHM0O9RasuzKYDBw1AFeVXOwaTM7r1ri119+4fnnnovbWlkvJSWFjz/5tNHJjYcfepCPPoydZX7kscc477x/xbS1pl9+mculF18c03bSySfzwovx9Qo4iHdetcTsWbN4/rlnWb9+vfYSRJYCffrZ5wknOwAee/SR6Ix8vVGjjmnxqQQ7d+5k06bYpXozZ/9Mp06dYtpIsPMKYPHSZaTt54GHXq+XowcNpK5uby2Mcccey+tvvBlzXz1FURg+dAhlZWXRtmuvv56bb74l5r56J594QszX126379f24pUrV8SMZefl5/PrvMTLw7Q7r3r27MmPP02Juefv7m/RY9UaPmIE33z3Hc+/8GLCveAOh4Nrr7mm0fOyChLssz7QpfyKdhRpm+jYMf4f9t/J6DFjmPTDjzzx5FOkp8efmFu9Zw/XXXtNo5N4ZaV7w6XenDk/M2vWzBb90IYqjYyzJyLL8n6HKpGnoxNOjF2Z8MvcuTFB29CC33+PCVVJkprcEViiWXpYW1sb9/tvzg/tBKHXk/jPJJH0VjgNua35WwYrkb9wJ59yClOmTku4tm/nziJee/UVbTNA3JpDIvvPD6T16+M3JRzotbMHA1mWOfOss5gybRqDBg/WXmbrli288/Zb2maIrCo4UJQEY96JtEa9WO0WVJ/Px8yZiXeBadeuDh8xosk6Bwfqa6Sq8bvbGqPdZfZP8LcN1nr21FTeefddRo+OLyr96SefJPyLd2i/Q+MmQFauWNGicbeWWpBgL/1hhx2mbfrbysjI4P0PPmRogkIkH7z/ftw5ZweLlg47JHL4EUfQRVOX96cfJ8f8HMDn9TJ92tSYtsbWCh9MdPIf/xq1NX/7YCXyl/+pZ56JW0PndDpZtGhhTBtAalpa3DEiwWCQqVMOzDjR+nXr4o4z6d69R8LlM39nBoOBp599DqumF1hdXc2K5eEKUg0lmmRctWYtWwq3/eEf+zPB80do17TOm/crNTWx66lnz54dM0SQmZnJmDHxGxIa0n6N+vcfEPd73Z8f9RW9hMT+EcEKkJqaxoknnaRtZvOm+JMJAI7X7MgB+PCD95u9FrYltLtigLi95P8U2dnZjBs3TtvMpgQnE2QlGD/f3+V0f7VTTzs9Zq1oIBBg2tTY3qm2ktWEM87AYDDEtGlpv0YVlW3z69PW/GOClcjica2amsTrJSecMQGTKXbR/oYNG/heM8b1R+3atSuu7mv9uOM/1SGHxI8tJ9oN16FjbJEQIkWW26K8vLy4tdgNSwnW1NTEFHqRZJlzGlm72pB2I0BpSQmuA7x0UPiHBWsg4Nc2xT0q1UtLS+fc887TNvOfxx9PeHT1/lBVlfvvuzduBvqkk09OuDLhn0L79aCRP6d+/fppm5g3r2W7pg4m2kmshQsWRMtXTtFUsho8aBAdEywH0+rbN/ZrpCgKv7WwipbQcv+oYN24IX5ZjbbAREPXXHtdXAHqqqpKrr36qoSTXi31wvPP8esvv8S0mUwmbrwpvuzeP8nGBBsDChLMfPfvPyCuDsH3kya1ycLIAOPGjYv5/YRCoehwwA+akojn/N+5MT9vzPAEx6xrtwELra/NBOujjzwcs36vpSorK5k+PXZhtyRJHHFE4zuA0tPTuf+B2MpJAMuXL+eySy+ltrZWe6lZVFXl2Wee5tVX4pd7XXvddXGPb23Jgw88EFckvCWKi3fH7W2XJInDDz8ipo3IZNfxJ5wQ01ZdXc3LLyXeVNEcB2IMvblMZjMnn3xKTNusmTNxOBwsXbJ3B1VaWlqjZRm1+g8YEPf3ae7cOXFf45b4K79GbUWbCdbff/udY8eO4aUXX2xxtaq6ujpuuO66uEXXhx1+OO2b6LECnHb66QmXtCxcuIBTTzmZ+fNaVoxiW2EhF15wPq+/9pr2EkOGDuWqq2MrCbU1c+b8zNjRx/D666+1eHlabU0N1197bdzTwNBhw8jMzIxpq3fJpZfGLY175+23mNjCYi4+n48XnnvuD50i0Bq0dVoXLPid33/7LaaWxGmnx4//N0aSJC79979j2lRV5bZbbtnnlmGt8vJyrr7qShyO/etQ/JO0mS2tJxx3XHSHjMlkYvToMYw79liOHjKk0aMoKisr+WnyZN568w1KS2NrrEqSxIcffxJXST4Rv9/PVVde0WhJt8GDB3P2Of/HiJEjEta3dDgcLFy4gO8nTmL69GkJC6707NWLTz/7PG5JWGMSbWkdMXJkk7twmjJm7NhGj+VoiZEjhrM7Us/UYrEwZuxYxo07lsFHH01GIztwysvKmPzTZN58/fW4HT6yLPPl198wQFMopaEHH3iATz7+KKZNkmUuuugirr/hxrjhnIZcLhffT5rIm2+8ya5dO3nl1deaXJGh3dLa8DDB1jL+2HEx50udeNLJ0SLYkiQxdfp0unbt1uAVTQsEApx+6ilxQWqz2bjzrrs46+xzmiwiU1pSwieffMyHH3yAy+Vi6fLl2O2Nl9HUbmlteJjgP0WbDFatnJwc2nfoQGpqKoqi4HQ62bVzJyUlJY0+tlx9zTXcetvt2uZGeb1ebrrxhiZ7NJIsk5uTQ05ODmazBY/HQ3l5GaWlpY3+OohUcn/jzbeaHao0Eqx/xB/Z795Qw2BtSJIkcnNzade+PXa7PfrnVLRjB2VlZY1+fW69/Xau3kcv3uPxcPaZZySsOWCxWhk1chSHHX4YeXn5GAwGXG4XO4uKWLVyFQsW/B4zJnswBOtbb77JU0/uPclAr9dHN0gcedRRfP7Flw3ubp5NmzZx1hkTEq4IyM7OZvSYMfTu3ZvMrCwkJGpqaigs3MrSJUtYsWJFTIUsEaz79rcI1paQZJlrrr6Gm2+9VXtpnxRF4eWXXuL1115tlZ1ABoOBK6+8iutuuKHJHkMibS1YW0qWZW6+9dZ9hmq98vJyLjz//Lhyei11MARrWVkZI4YNTfhk88yzz3La6RO0zc2ycOFCrrz8skZrZDSXCNZ9azNjrCeedCKWZp5r3phevXrx0cef7FeoEvnHfuNNN/HdxEn7dQZ8PYPBwGmnn85PU6Zy0y23tDhUD2Ynn3xywqVRLdGv36F8/sWXzQ5VIr2ur775Jlz4vIX1WIks57ryqqsYOWqU9tKfLicnh2HD4r9ppqSkNBn6+zJo0CC++W5iXGHv5srOzubJp55uMlSFsDbTYyUyVjl71kzmzZvH8mXLKCoqavQRsl5ubi5Dhw3nlFNOYcjQofv1j64xq1ev5puvv2b27FnNOt2zf//+TDjjTE448QTS0mLPQGqp8rIyLrroQm3zfvv8iy+bHItsiZqaGmbNnMm8eb+yYvkKdu3auc8/p/z8fIaPGMEpp57GoARHgbfEypUref+9d5k9a1bCR996er2evn37cuz44zjjzDMbHQNu6LFHH4k5TdVms/HV19/E3NMaZs6YwbPPPhPTNn78cXEHIO4PRVGYNnUqn376CYsWLkzYM65nTUpi0MBBnHDSiRx//AnN+qZ51hkTcDb4ug8bNox777s/5p6/uzYVrFper4etW7eye/duamtqcbldGPR6UlLsZGVn06VLl4RlAw+EkuJiCgsLKS0txe1288knH8cdNZxfUMBnn3/xj1v873a72bp1K8XFu3HUOnC5XRgNBlJS7GTn5NClS5dGZ/3/iGAwyKaNG9m+fTvV1dUEggFMJhPpaekUtCuga9duWCwW7cv+UVwuF+vWrWXXrl0465woioLVaiUjI4MOHTvSuXPnVik080/TpoP1YFZcvJtzzjorrh5mhw4deP/Dj+LObBcE4e+jzYyxtjX5+QW898EHcY/XRUVFnHvO2axfF19/VRCEvwcRrAdQt27deff9D+K2XZaVlXHO2Wfx7TetPzYnCMJfTwwF/AlWrVrFRRecH7fzC2DIkCFcfe11DB48OOHEmtfrbdaEgSAIBw8RrH+SNWvWcNmll8TtLKqXlZVF/wEDKCgowGg0UVfnYFvhNkpKipk9J/GOL0EQDk4iWP9EZaWl/PvSS+K2FjYlJyeH+b8v0DYLgnAQE2Osf6Kc3Fw+//IrzjjzrISP/YIg/D2IYP2T2Ww2nnzqKb786mvGjBkTcxyHIAh/D2Io4C9WUVHB7FmzWL16FTu2b6euzonBoCfFbicvL4+jBg7k1FNP075MEISDmAhWQRCEViaeQwVBEFqZCFZBEIRWJoJVEAShlYlgFQRBaGUiWAVBEFqZCFZBEIRWJoJVEAShlYlgFQRBaGUiWAVBEFqZCFZBEIRWJoJVEAShlYlgFQRBaGUiWAVBEFqZCFZBEIRWJoJVEAShlYlgFQRBaGUiWAVBEFqZCFZBEIRW9v9KTu1YZFWhfwAAAABJRU5ErkJggg==;" parent="1" vertex="1">
          <mxGeometry x="280" y="180" width="60" height="43.34" as="geometry" />
        </mxCell>
        <mxCell id="f739JtiU8967UoqXVAPJ-1" value="&lt;font&gt;DWH Architecture&lt;/font&gt;" style="text;html=1;align=center;verticalAlign=middle;whiteSpace=wrap;rounded=0;fontSize=50;fontStyle=1" parent="1" vertex="1">
          <mxGeometry x="10" y="70" width="725" height="80" as="geometry" />
        </mxCell>
      </root>
    </mxGraphModel>
  </diagram>
</mxfile>
